<mxfile host="65bd71144e">
    <diagram id="ieTX1YkG68YavZrFhSx_" name="Page-1">
        <mxGraphModel dx="1216" dy="460" grid="1" gridSize="10" guides="1" tooltips="1" connect="1" arrows="1" fold="1" page="1" pageScale="1" pageWidth="850" pageHeight="1100" math="0" shadow="0">
            <root>
                <mxCell id="0"/>
                <mxCell id="1" parent="0"/>
                <mxCell id="2" value="" style="points=[];aspect=fixed;html=1;align=center;shadow=0;dashed=0;image;image=img/lib/allied_telesis/computer_and_terminals/Personal_Computer_with_Server.svg;" vertex="1" parent="1">
                    <mxGeometry x="40" y="60" width="62.400000000000006" height="62.400000000000006" as="geometry"/>
                </mxCell>
                <mxCell id="4" value="" style="image;html=1;image=img/lib/clip_art/computers/Server_Rack_128x128.png" vertex="1" parent="1">
                    <mxGeometry x="780" y="63.1" width="70" height="56.2" as="geometry"/>
                </mxCell>
                <mxCell id="5" value="" style="aspect=fixed;html=1;points=[];align=center;image;fontSize=12;image=img/lib/azure2/networking/Virtual_Router.svg;" vertex="1" parent="1">
                    <mxGeometry x="370" y="36.599999999999994" width="91.6" height="91.6" as="geometry"/>
                </mxCell>
                <mxCell id="6" value="Personal&lt;br&gt;PC&lt;br&gt;(10.0.2.6)" style="text;strokeColor=none;align=center;fillColor=none;html=1;verticalAlign=middle;whiteSpace=wrap;rounded=0;" vertex="1" parent="1">
                    <mxGeometry x="42.4" width="57.6" height="60" as="geometry"/>
                </mxCell>
                <mxCell id="7" value="Private Network&lt;br&gt;(10.0.2.6)" style="text;strokeColor=none;align=center;fillColor=none;html=1;verticalAlign=middle;whiteSpace=wrap;rounded=0;" vertex="1" parent="1">
                    <mxGeometry x="180" y="21" width="120" height="52.4" as="geometry"/>
                </mxCell>
                <mxCell id="8" value="" style="aspect=fixed;perimeter=ellipsePerimeter;html=1;align=center;shadow=0;dashed=0;spacingTop=3;image;image=img/lib/active_directory/internet_cloud.svg;" vertex="1" parent="1">
                    <mxGeometry x="560" y="39.3" width="154.93" height="97.6" as="geometry"/>
                </mxCell>
                <mxCell id="12" value="Google&amp;nbsp;&lt;br&gt;Server&lt;br&gt;(8.8.8.8)" style="text;strokeColor=none;align=center;fillColor=none;html=1;verticalAlign=middle;whiteSpace=wrap;rounded=0;" vertex="1" parent="1">
                    <mxGeometry x="770" width="70" height="50" as="geometry"/>
                </mxCell>
                <mxCell id="13" value="Router" style="text;strokeColor=none;align=center;fillColor=none;html=1;verticalAlign=middle;whiteSpace=wrap;rounded=0;" vertex="1" parent="1">
                    <mxGeometry x="350" width="120" height="50" as="geometry"/>
                </mxCell>
                <mxCell id="15" value="NAT&lt;br&gt;(Network Address Translation)&amp;nbsp;" style="text;strokeColor=none;align=center;fillColor=none;html=1;verticalAlign=middle;whiteSpace=wrap;rounded=0;" vertex="1" parent="1">
                    <mxGeometry x="345.8" y="128.2" width="140" height="70" as="geometry"/>
                </mxCell>
                <mxCell id="18" value="Public Network&lt;br&gt;192.168.1.1" style="text;strokeColor=none;align=center;fillColor=none;html=1;verticalAlign=middle;whiteSpace=wrap;rounded=0;" vertex="1" parent="1">
                    <mxGeometry x="430" y="32.2" width="190" height="30" as="geometry"/>
                </mxCell>
                <mxCell id="19" value="Internet" style="text;strokeColor=none;align=center;fillColor=none;html=1;verticalAlign=middle;whiteSpace=wrap;rounded=0;" vertex="1" parent="1">
                    <mxGeometry x="587.62" y="10" width="100" height="30" as="geometry"/>
                </mxCell>
                <mxCell id="20" value="Destination&amp;nbsp;" style="text;strokeColor=none;align=center;fillColor=none;html=1;verticalAlign=middle;whiteSpace=wrap;rounded=0;" vertex="1" parent="1">
                    <mxGeometry x="770" y="123.2" width="80" height="40" as="geometry"/>
                </mxCell>
                <mxCell id="21" value="Host" style="text;strokeColor=none;align=center;fillColor=none;html=1;verticalAlign=middle;whiteSpace=wrap;rounded=0;" vertex="1" parent="1">
                    <mxGeometry x="42.39999999999998" y="128.2" width="60" height="30" as="geometry"/>
                </mxCell>
                <mxCell id="36" value="192.168.1.1" style="text;strokeColor=none;align=center;fillColor=none;html=1;verticalAlign=middle;whiteSpace=wrap;rounded=0;" vertex="1" parent="1">
                    <mxGeometry x="680" y="123.19999999999999" width="90" height="30" as="geometry"/>
                </mxCell>
                <mxCell id="37" value="" style="endArrow=blockThin;html=1;labelPosition=left;verticalLabelPosition=middle;align=right;verticalAlign=middle;dashed=1;dashPattern=8 4;endFill=0;startArrow=oval;startFill=0;endSize=6;startSize=4;" edge="1" parent="1">
                    <mxGeometry relative="1" as="geometry">
                        <mxPoint x="120" y="80" as="sourcePoint"/>
                        <mxPoint x="360" y="80" as="targetPoint"/>
                    </mxGeometry>
                </mxCell>
                <mxCell id="38" value="" style="shape=message;html=1;outlineConnect=0;labelPosition=left;verticalLabelPosition=middle;align=right;verticalAlign=middle;spacingRight=5;labelBackgroundColor=#ffffff;" vertex="1" parent="37">
                    <mxGeometry width="24" height="16" relative="1" as="geometry">
                        <mxPoint x="8" y="-8" as="offset"/>
                    </mxGeometry>
                </mxCell>
                <mxCell id="39" value="" style="endArrow=blockThin;html=1;labelPosition=left;verticalLabelPosition=middle;align=right;verticalAlign=middle;dashed=1;dashPattern=8 4;endFill=0;startArrow=oval;startFill=0;endSize=6;startSize=4;" edge="1" parent="1">
                    <mxGeometry relative="1" as="geometry">
                        <mxPoint x="470" y="81.9" as="sourcePoint"/>
                        <mxPoint x="550" y="81.9" as="targetPoint"/>
                    </mxGeometry>
                </mxCell>
                <mxCell id="40" value="" style="shape=message;html=1;outlineConnect=0;labelPosition=left;verticalLabelPosition=middle;align=right;verticalAlign=middle;spacingRight=5;labelBackgroundColor=#ffffff;" vertex="1" parent="39">
                    <mxGeometry width="24" height="16" relative="1" as="geometry">
                        <mxPoint x="8" y="-8" as="offset"/>
                    </mxGeometry>
                </mxCell>
                <mxCell id="45" value="" style="endArrow=blockThin;html=1;labelPosition=left;verticalLabelPosition=middle;align=right;verticalAlign=middle;dashed=1;dashPattern=8 4;endFill=0;startArrow=oval;startFill=0;endSize=6;startSize=4;" edge="1" parent="1">
                    <mxGeometry relative="1" as="geometry">
                        <mxPoint x="710" y="81.9" as="sourcePoint"/>
                        <mxPoint x="790" y="81.9" as="targetPoint"/>
                    </mxGeometry>
                </mxCell>
                <mxCell id="46" value="" style="shape=message;html=1;outlineConnect=0;labelPosition=left;verticalLabelPosition=middle;align=right;verticalAlign=middle;spacingRight=5;labelBackgroundColor=#ffffff;" vertex="1" parent="45">
                    <mxGeometry width="24" height="16" relative="1" as="geometry">
                        <mxPoint x="8" y="-8" as="offset"/>
                    </mxGeometry>
                </mxCell>
                <mxCell id="47" value="" style="endArrow=blockThin;html=1;labelPosition=left;verticalLabelPosition=middle;align=right;verticalAlign=middle;dashed=1;dashPattern=8 4;endFill=0;startArrow=oval;startFill=0;endSize=6;startSize=4;" edge="1" parent="1">
                    <mxGeometry relative="1" as="geometry">
                        <mxPoint x="790" y="116.2" as="sourcePoint"/>
                        <mxPoint x="710" y="116.2" as="targetPoint"/>
                    </mxGeometry>
                </mxCell>
                <mxCell id="48" value="" style="shape=message;html=1;outlineConnect=0;labelPosition=left;verticalLabelPosition=middle;align=right;verticalAlign=middle;spacingRight=5;labelBackgroundColor=#ffffff;fillColor=#C0C0C0;" vertex="1" parent="47">
                    <mxGeometry width="24" height="16" relative="1" as="geometry">
                        <mxPoint x="8" y="-8" as="offset"/>
                    </mxGeometry>
                </mxCell>
                <mxCell id="51" value="" style="endArrow=blockThin;html=1;labelPosition=left;verticalLabelPosition=middle;align=right;verticalAlign=middle;dashed=1;dashPattern=8 4;endFill=0;startArrow=oval;startFill=0;endSize=6;startSize=4;" edge="1" parent="1">
                    <mxGeometry relative="1" as="geometry">
                        <mxPoint x="551.6" y="116.2" as="sourcePoint"/>
                        <mxPoint x="461.6" y="116.2" as="targetPoint"/>
                    </mxGeometry>
                </mxCell>
                <mxCell id="52" value="" style="shape=message;html=1;outlineConnect=0;labelPosition=left;verticalLabelPosition=middle;align=right;verticalAlign=middle;spacingRight=5;labelBackgroundColor=#ffffff;fillColor=#C0C0C0;" vertex="1" parent="51">
                    <mxGeometry width="24" height="16" relative="1" as="geometry">
                        <mxPoint x="8" y="-8" as="offset"/>
                    </mxGeometry>
                </mxCell>
                <mxCell id="53" value="192.168.1.1" style="text;strokeColor=none;align=center;fillColor=none;html=1;verticalAlign=middle;whiteSpace=wrap;rounded=0;" vertex="1" parent="1">
                    <mxGeometry x="485.8" y="128.2" width="90" height="30" as="geometry"/>
                </mxCell>
                <mxCell id="54" value="Public Network&lt;br&gt;192.168.1.1" style="text;strokeColor=none;align=center;fillColor=none;html=1;verticalAlign=middle;whiteSpace=wrap;rounded=0;" vertex="1" parent="1">
                    <mxGeometry x="630" y="30.000000000000004" width="190" height="30" as="geometry"/>
                </mxCell>
                <mxCell id="55" value="Private Network&lt;br&gt;(10.0.2.6)" style="text;strokeColor=none;align=center;fillColor=none;html=1;verticalAlign=middle;whiteSpace=wrap;rounded=0;" vertex="1" parent="1">
                    <mxGeometry x="180" y="136.9" width="120" height="52.4" as="geometry"/>
                </mxCell>
                <mxCell id="56" value="" style="endArrow=blockThin;html=1;labelPosition=left;verticalLabelPosition=middle;align=right;verticalAlign=middle;dashed=1;dashPattern=8 4;endFill=0;startArrow=oval;startFill=0;endSize=6;startSize=4;" edge="1" parent="1">
                    <mxGeometry relative="1" as="geometry">
                        <mxPoint x="359.9999999999999" y="122.20000000000005" as="sourcePoint"/>
                        <mxPoint x="120" y="120" as="targetPoint"/>
                    </mxGeometry>
                </mxCell>
                <mxCell id="57" value="" style="shape=message;html=1;outlineConnect=0;labelPosition=left;verticalLabelPosition=middle;align=right;verticalAlign=middle;spacingRight=5;labelBackgroundColor=#ffffff;fillColor=#C0C0C0;" vertex="1" parent="56">
                    <mxGeometry width="24" height="16" relative="1" as="geometry">
                        <mxPoint x="8" y="-8" as="offset"/>
                    </mxGeometry>
                </mxCell>
            </root>
        </mxGraphModel>
    </diagram>
</mxfile>